<svg id="Layer_1" data-name="Layer 1" xmlns="http://www.w3.org/2000/svg" viewBox="0 0 122.88 70.33"><defs><style>.cls-1{fill-rule:evenodd;}</style></defs><title>online-news</title><path class="cls-1" d="M3.76,62.8H14.92a2.21,2.21,0,0,1-.15-.78V2.13A2.14,2.14,0,0,1,16.9,0H106a2.13,2.13,0,0,1,2.12,2.13V62a2,2,0,0,1-.15.78h11.17a3.77,3.77,0,0,1,2.66,1.11,3.75,3.75,0,0,1,0,5.31,3.77,3.77,0,0,1-2.66,1.11H3.76a3.77,3.77,0,0,1,0-7.53ZM78.05,27.58H95.43a2.75,2.75,0,0,1,2.73,2.74v8.33a2.75,2.75,0,0,1-2.73,2.73H78.05a2.75,2.75,0,0,1-2.74-2.73V30.32a2.75,2.75,0,0,1,2.74-2.74Zm-50.6,0H44.37a2.75,2.75,0,0,1,2.73,2.74v8.33a2.74,2.74,0,0,1-2.73,2.73H27.45a2.74,2.74,0,0,1-2.73-2.73V30.32a2.75,2.75,0,0,1,2.73-2.74Zm25.3,0H69.66a2.75,2.75,0,0,1,2.74,2.74v8.33a2.75,2.75,0,0,1-2.74,2.73H52.75A2.75,2.75,0,0,1,50,38.65V30.32a2.75,2.75,0,0,1,2.74-2.74Zm-15,28.16c-.92,0-.92-3.39,0-3.39h60c.92,0,.92,3.39,0,3.39Zm-12,0c-.91,0-.91-3.39,0-3.39h8.81c.9,0,.9,3.39,0,3.39Zm-.06-7.09c-.91,0-.91-3.39,0-3.39h8.57c.91,0,.91,3.39,0,3.39Zm12.1,0c-.92,0-.92-3.39,0-3.39h60c.92,0,.92,3.39,0,3.39Zm66.84-39.8H18.26V60.91h86.36V8.85ZM29,3.43a1.28,1.28,0,1,1-1.28,1.28A1.28,1.28,0,0,1,29,3.43Zm-4.48,0a1.28,1.28,0,1,1-1.28,1.28,1.28,1.28,0,0,1,1.28-1.28ZM20,3.43a1.28,1.28,0,1,1-1.28,1.28A1.28,1.28,0,0,1,20,3.43Zm24.08,19.5V13.72H46l3.24,5.13V13.72h2.4v9.21H49.73L46.5,17.8v5.13ZM55.43,23a5,5,0,0,1-.71-.06,2.42,2.42,0,0,1-.81-.27,1.72,1.72,0,0,1-.65-.66,2.37,2.37,0,0,1-.26-1.2V16a2.63,2.63,0,0,1,.21-1.12,1.85,1.85,0,0,1,.55-.7,2.19,2.19,0,0,1,.74-.35,2.78,2.78,0,0,1,.79-.11c.7,0,1.29,0,1.79,0l1.31.07c.36,0,.69,0,1,.09v2H56a.65.65,0,0,0-.47.14.47.47,0,0,0-.16.4v.77l3.33.13v1.9l-3.33.13v.69a1,1,0,0,0,.06.37.51.51,0,0,0,.2.21.6.6,0,0,0,.27.07h3.42v2c-.36,0-.76.09-1.22.12s-.91.06-1.38.08l-1.33,0ZM62,22.93l-2.1-9.21h2.49l1.14,5.6,1.37-5.6H67l1.36,5.6,1.14-5.6H72l-2.11,9.21h-2.4L66,17.3l-1.57,5.63ZM75.4,23l-.8,0c-.26,0-.51,0-.76-.08l-.73-.11c-.23,0-.45-.09-.67-.15V20.73l.91.07,1,0h.94a3.23,3.23,0,0,0,.68-.06.75.75,0,0,0,.41-.2.5.5,0,0,0,.14-.37v-.15a.45.45,0,0,0-.2-.4.67.67,0,0,0-.45-.14h-.65A3.33,3.33,0,0,1,73,18.89a2.67,2.67,0,0,1-.74-2.12v-.41a2.48,2.48,0,0,1,.82-2,3.6,3.6,0,0,1,2.35-.67c.39,0,.76,0,1.1,0s.67.08,1,.14.57.11.81.17v1.9l-1.28-.08-1.3,0a3.8,3.8,0,0,0-.62,0,.75.75,0,0,0-.42.2.58.58,0,0,0-.15.43v.13a.59.59,0,0,0,.2.47.93.93,0,0,0,.61.16h.81a2.91,2.91,0,0,1,1.45.33,2.19,2.19,0,0,1,.87.89,2.8,2.8,0,0,1,.29,1.28v.41a3.31,3.31,0,0,1-.41,1.8,2,2,0,0,1-1.17.83A6.35,6.35,0,0,1,75.4,23ZM57.94,65h7a1.19,1.19,0,0,1,1.2,1.19h0a1.2,1.2,0,0,1-1.2,1.19h-7a1.2,1.2,0,0,1-1.19-1.19h0A1.19,1.19,0,0,1,57.94,65Z"/></svg>